<svg width="24" height="24" viewBox="0 0 24 24" fill="none" xmlns="http://www.w3.org/2000/svg">
  <path d="M13.3329 5.33332C13.3329 6.31516 12.537 7.1111 11.5551 7.1111C10.5733 7.1111 9.77734 6.31516 9.77734 5.33332C9.77734 4.35148 10.5733 3.55554 11.5551 3.55554C12.537 3.55554 13.3329 4.35148 13.3329 5.33332Z" fill="white" />
  <path d="M13.3329 11.5555C13.3329 12.5374 12.537 13.3333 11.5551 13.3333C10.5733 13.3333 9.77734 12.5374 9.77734 11.5555C9.77734 10.5737 10.5733 9.77776 11.5551 9.77776C12.537 9.77776 13.3329 10.5737 13.3329 11.5555Z" fill="white" />
  <path d="M13.3329 17.7778C13.3329 18.7596 12.537 19.5555 11.5551 19.5555C10.5733 19.5555 9.77734 18.7596 9.77734 17.7778C9.77734 16.7959 10.5733 16 11.5551 16C12.537 16 13.3329 16.7959 13.3329 17.7778Z" fill="white" />
</svg>