<svg width="11" height="13" viewBox="0 0 11 13" fill="none" xmlns="http://www.w3.org/2000/svg">
  <path fill-rule="evenodd" clip-rule="evenodd" d="M0.234375 4.84193C0.234375 4.54541 0.48396 4.30476 0.790243 4.30476H1.74368L7.46067 10.1408V11.5726C7.46067 12.3047 6.9048 12.5798 6.34893 12.0426L2.70132 8.9696H0.790243C0.48396 8.9696 0.234375 8.72788 0.234375 8.43244V4.84193Z" fill="#BDC1C4" />
  <path d="M0.89717 0.678365C0.795444 0.696155 0.700868 0.741006 0.624067 0.807877C0.547266 0.874749 0.491285 0.960992 0.462412 1.05692C0.43354 1.15284 0.43292 1.25464 0.460623 1.35089C0.488326 1.44713 0.543254 1.53401 0.619235 1.60175L9.83495 10.5073C9.88401 10.5658 9.94523 10.6137 10.0146 10.6478C10.0841 10.6819 10.1601 10.7016 10.2379 10.7055C10.3157 10.7094 10.3935 10.6975 10.4662 10.6705C10.5389 10.6435 10.6049 10.602 10.6599 10.5488C10.715 10.4955 10.7579 10.4317 10.7857 10.3614C10.8136 10.2911 10.8259 10.216 10.8218 10.1408C10.8177 10.0657 10.7974 9.99216 10.762 9.9251C10.7266 9.85804 10.677 9.79892 10.6165 9.75156L8.4014 7.61153V1.75066C8.4014 0.712129 7.32903 0.722813 6.54623 1.36497L4.02548 3.38287L1.40134 0.845959C1.34397 0.786904 1.27351 0.741152 1.19525 0.712129C1.11699 0.683106 1.03295 0.671564 0.949421 0.678365C0.932014 0.677573 0.914577 0.677573 0.89717 0.678365Z" fill="#BDC1C4" />
</svg>