<svg width="21" height="21" viewBox="0 0 21 21" fill="none" xmlns="http://www.w3.org/2000/svg">
  <path d="M0.779261 1.68924C0.779261 1.38542 0.779261 0.777792 1.85693 0.777779C3.2425 0.777762 18.6378 8.67708 19.7154 9.58854C20.5776 10.3177 20.1758 11.1076 19.714 11.4115C18.6366 12.3226 3.09527 20.2175 1.85545 20.2222C0.777778 20.2222 0.777778 19.6146 0.777778 19.3108L1.85653 12.6267C1.97937 11.8976 2.31853 11.7153 2.47275 11.7153L11.7099 10.8038C11.8125 10.8038 12.0178 10.7431 12.0178 10.5C12.0178 10.2569 11.8125 10.1962 11.7099 10.1962L2.47275 9.28472C2.31853 9.28472 1.97937 9.10243 1.85653 8.37326C1.49594 6.17005 0.779261 1.99306 0.779261 1.68924Z" fill="white" />
</svg>